<svg preserveAspectRatio="none" width="100%" height="100%" overflow="visible" style="display: block;" viewBox="0 0 96 24" fill="none" xmlns="http://www.w3.org/2000/svg">
<g id="Properly">
<path d="M0 18.2609V0H6.74577C8.01331 0 9.12458 0.217392 10.0796 0.652175C11.0519 1.06957 11.8159 1.68696 12.3716 2.50435C12.9272 3.32174 13.205 4.31304 13.205 5.47826C13.205 6.64348 12.9272 7.64348 12.3716 8.47826C11.8159 9.29565 11.0519 9.92174 10.0796 10.3565C9.12458 10.7739 8.01331 10.9826 6.74577 10.9826H3.33381V18.2609H0ZM3.33381 8.13913H6.66763C7.83099 8.13913 8.64708 7.89565 9.1159 7.4087C9.58472 6.90435 9.81913 6.26087 9.81913 5.47826C9.81913 4.71304 9.58472 4.08696 9.1159 3.6C8.64708 3.09565 7.83099 2.84348 6.66763 2.84348H3.33381V8.13913Z" fill="var(--fill-0, #383E42)"/>
<path d="M14.8424 18.2609V5.32174H18.1502V7.25217C18.6017 6.52174 19.1747 5.96522 19.8692 5.58261C20.5638 5.2 21.3364 5.0087 22.1872 5.0087V8.50435H21.3017C20.2425 8.50435 19.4525 8.75652 18.9316 9.26087C18.4107 9.76522 18.1502 10.6087 18.1502 11.7913V18.2609H14.8424Z" fill="var(--fill-0, #383E42)"/>
<path d="M29.7933 18.5739C28.4911 18.5739 27.3277 18.2957 26.3032 17.7391C25.2961 17.1652 24.5061 16.3652 23.9331 15.3391C23.3601 14.313 23.0736 13.1304 23.0736 11.7913C23.0736 10.3826 23.3775 9.17391 23.9852 8.16522C24.6103 7.13913 25.4351 6.35652 26.4595 5.81739C27.5013 5.27826 28.6473 5.0087 29.8975 5.0087C31.1998 5.0087 32.3631 5.29565 33.3876 5.86957C34.4121 6.42609 35.2195 7.2087 35.8098 8.21739C36.4175 9.22609 36.7214 10.4174 36.7214 11.7913C36.7214 13.0957 36.4262 14.2609 35.8359 15.287C35.2455 16.313 34.4294 17.1217 33.3876 17.713C32.3631 18.287 31.1651 18.5739 29.7933 18.5739ZM29.8454 15.6783C30.54 15.6783 31.139 15.5043 31.6426 15.1565C32.1635 14.7913 32.5715 14.313 32.8667 13.7217C33.1619 13.113 33.3095 12.4522 33.3095 11.7391C33.3095 10.9217 33.1445 10.2261 32.8146 9.65217C32.5021 9.07826 32.0853 8.64348 31.5644 8.34783C31.0435 8.05217 30.4705 7.90435 29.8454 7.90435C29.1682 7.90435 28.5692 8.06957 28.0483 8.4C27.5447 8.73043 27.1454 9.1913 26.8502 9.78261C26.5724 10.3565 26.4335 11.0261 26.4335 11.7913C26.4335 12.5565 26.5811 13.2348 26.8762 13.8261C27.1888 14.4174 27.6055 14.8783 28.1264 15.2087C28.6473 15.5217 29.2203 15.6783 29.8454 15.6783Z" fill="var(--fill-0, #383E42)"/>
<path d="M38.6496 24V5.32174H41.9574V7.12174C42.4609 6.42609 43.086 5.90435 43.8326 5.55652C44.5966 5.1913 45.4214 5.0087 46.3069 5.0087C47.5571 5.0087 48.625 5.31304 49.5105 5.92174C50.4134 6.53043 51.0993 7.34783 51.5681 8.37391C52.0543 9.38261 52.2974 10.5043 52.2974 11.7391C52.2974 12.9739 52.0543 14.113 51.5681 15.1565C51.0819 16.2 50.3874 17.0348 49.4845 17.6609C48.5989 18.2696 47.5398 18.5739 46.3069 18.5739C45.213 18.5739 44.3014 18.3478 43.5722 17.8957C42.8603 17.4435 42.3307 16.9739 41.9834 16.487V24H38.6496ZM45.4214 15.6522C46.1159 15.6522 46.7237 15.4783 47.2446 15.1304C47.7655 14.7652 48.1735 14.287 48.4687 13.6957C48.7639 13.1043 48.9115 12.4522 48.9115 11.7391C48.9115 10.9217 48.7465 10.2348 48.4166 9.67826C48.1041 9.10435 47.6787 8.66957 47.1404 8.37391C46.6195 8.07826 46.0465 7.93043 45.4214 7.93043C44.7616 7.93043 44.1712 8.09565 43.6503 8.42609C43.1294 8.75652 42.7127 9.21739 42.4001 9.8087C42.1049 10.3826 41.9574 11.0435 41.9574 11.7913C41.9574 12.5043 42.1049 13.1565 42.4001 13.7478C42.6953 14.3391 43.1034 14.8087 43.6243 15.1565C44.1452 15.487 44.7442 15.6522 45.4214 15.6522Z" fill="var(--fill-0, #383E42)"/>
<path d="M60.3886 18.5739C59.0342 18.5739 57.8622 18.2783 56.8724 17.687C55.9001 17.0957 55.1448 16.287 54.6065 15.2609C54.0682 14.2348 53.7991 13.0783 53.7991 11.7913C53.7991 10.4174 54.0769 9.22609 54.6325 8.21739C55.1882 7.2087 55.9608 6.42609 56.9506 5.86957C57.9403 5.29565 59.0863 5.0087 60.3886 5.0087C61.6735 5.0087 62.7934 5.28696 63.7484 5.84348C64.7208 6.4 65.4761 7.16522 66.0144 8.13913C66.57 9.11304 66.8478 10.2348 66.8478 11.5043C66.8478 11.7304 66.8392 11.9565 66.8218 12.1826C66.8044 12.3913 66.7784 12.5913 66.7437 12.7826H57.1589C57.211 13.3913 57.3673 13.9304 57.6278 14.4C57.9056 14.8522 58.2702 15.2087 58.7217 15.4696C59.1905 15.713 59.7201 15.8348 60.3104 15.8348C60.9182 15.8348 61.4391 15.7043 61.8732 15.4435C62.3246 15.1826 62.6806 14.7826 62.941 14.2435H66.5092C66.2662 15.0087 65.8755 15.7217 65.3372 16.3826C64.7989 17.0435 64.1131 17.5739 63.2796 17.9739C62.4635 18.3739 61.4998 18.5739 60.3886 18.5739ZM57.185 10.5652H63.4098C63.3925 9.69565 63.0712 9.0087 62.4462 8.50435C61.8384 8 61.1178 7.74783 60.2844 7.74783C59.5725 7.74783 58.9127 7.97391 58.3049 8.42609C57.6972 8.86087 57.3239 9.57391 57.185 10.5652Z" fill="var(--fill-0, #383E42)"/>
<path d="M68.612 18.2609V5.32174H71.9198V7.25217C72.3712 6.52174 72.9442 5.96522 73.6388 5.58261C74.3333 5.2 75.106 5.0087 75.9568 5.0087V8.50435H75.0713C74.0121 8.50435 73.222 8.75652 72.7011 9.26087C72.1802 9.76522 71.9198 10.6087 71.9198 11.7913V18.2609H68.612Z" fill="var(--fill-0, #383E42)"/>
<path d="M77.5143 18.2609V0H80.8481V18.2609H77.5143Z" fill="var(--fill-0, #383E42)"/>
<path d="M84.4098 24L87.2487 17.6609L82.0136 5.32174H85.7381L89.0719 14.1391L92.4839 5.32174H96L87.9259 24H84.4098Z" fill="var(--fill-0, #383E42)"/>
</g>
</svg>
